<svg width="8" height="10" viewBox="0 0 8 10" fill="none" xmlns="http://www.w3.org/2000/svg">
<path d="M4 0C2.93952 0.00122874 1.92283 0.415525 1.17296 1.15201C0.423084 1.88849 0.00125533 2.88703 4.25559e-06 3.92857C-0.00126589 4.77972 0.281815 5.60778 0.805822 6.28571C0.805822 6.28571 0.914912 6.42679 0.932731 6.44714L4 10L7.06872 6.44536C7.08472 6.42643 7.19418 6.28571 7.19418 6.28571L7.19454 6.28464C7.71829 5.607 8.00124 4.77933 8 3.92857C7.99874 2.88703 7.57692 1.88849 6.82704 1.15201C6.07717 0.415525 5.06048 0.00122874 4 0ZM4 5.35714C3.71232 5.35714 3.4311 5.27336 3.1919 5.11638C2.9527 4.95941 2.76627 4.7363 2.65618 4.47526C2.54609 4.21422 2.51728 3.92699 2.5734 3.64987C2.62953 3.37276 2.76806 3.11821 2.97148 2.91842C3.1749 2.71863 3.43408 2.58257 3.71623 2.52745C3.99839 2.47233 4.29085 2.50062 4.55663 2.60874C4.82241 2.71687 5.04958 2.89997 5.20941 3.1349C5.36924 3.36983 5.45454 3.64603 5.45454 3.92857C5.45406 4.30731 5.30066 4.6704 5.02799 4.9382C4.75531 5.20601 4.38562 5.35667 4 5.35714Z" fill="#415770"/>
</svg>
