<svg width="18" height="18" viewBox="0 0 18 18" fill="none" xmlns="http://www.w3.org/2000/svg">
<rect width="18" height="18" fill="#1E1E1E"/>
<g clip-path="url(#clip0_0_1)">
<rect width="375" height="969" transform="translate(-27 -632)" fill="white"/>
<path d="M17.487 14.14L13.422 10.444C13.2298 10.2693 12.9773 10.1762 12.7178 10.1842C12.4583 10.1922 12.212 10.3008 12.031 10.487L9.638 12.948C9.062 12.838 7.904 12.477 6.712 11.288C5.52 10.095 5.159 8.934 5.052 8.362L7.511 5.968C7.69741 5.78712 7.80614 5.54082 7.81416 5.2812C7.82219 5.02159 7.72888 4.76904 7.554 4.57699L3.859 0.512995C3.68404 0.320352 3.44088 0.203499 3.18115 0.187255C2.92143 0.17101 2.6656 0.256653 2.468 0.425995L0.298 2.28699C0.125111 2.46051 0.0219192 2.69145 0.00799967 2.93599C-0.00700033 3.18599 -0.293 9.108 4.299 13.702C8.305 17.707 13.323 18 14.705 18C14.907 18 15.031 17.994 15.064 17.992C15.3085 17.9783 15.5393 17.8747 15.712 17.701L17.572 15.53C17.742 15.333 17.8283 15.0774 17.8124 14.8177C17.7965 14.558 17.6797 14.3148 17.487 14.14Z" fill="#000842"/>
</g>
<defs>
<clipPath id="clip0_0_1">
<rect width="375" height="969" fill="white" transform="translate(-27 -632)"/>
</clipPath>
</defs>
</svg>
