<svg width="25" height="24" viewBox="0 0 25 24" fill="none" xmlns="http://www.w3.org/2000/svg">
<path d="M18.374 2.14576C18.178 1.95076 17.862 1.95076 17.667 2.14576L4.70602 15.1058L4.71402 15.1138C4.59802 15.2058 4.52002 15.3408 4.52002 15.4998C4.52002 15.7758 4.74402 15.9998 5.02002 15.9998C5.17902 15.9998 5.31402 15.9218 5.40602 15.8068L5.41302 15.8138L18.374 2.85376C18.569 2.65776 18.569 2.34176 18.374 2.14576ZM18.02 3.99976C17.744 3.99976 17.52 4.22376 17.52 4.49976V20.9998H7.52002V15.4998C7.52002 15.2238 7.29602 14.9998 7.02002 14.9998C6.74402 14.9998 6.52002 15.2238 6.52002 15.4998V21.4998C6.52002 21.7758 6.74402 21.9998 7.02002 21.9998H18.02C18.296 21.9998 18.52 21.7758 18.52 21.4998V4.49976C18.52 4.22376 18.296 3.99976 18.02 3.99976Z" fill="#FFB511"/>
<path d="M16.02 14H14.02C13.744 14 13.52 14.224 13.52 14.5V16.5C13.52 16.776 13.744 17 14.02 17H16.02C16.296 17 16.52 16.776 16.52 16.5V14.5C16.52 14.224 16.296 14 16.02 14ZM15.52 16H14.52V15H15.52V16ZM9.02002 14C8.74402 14 8.52002 14.224 8.52002 14.5V16.5C8.52002 16.776 8.74402 17 9.02002 17H11.02C11.296 17 11.52 16.776 11.52 16.5V14.5C11.52 14.224 11.296 14 11.02 14H9.02002ZM10.52 16H9.52002V15H10.52V16ZM16.52 9.5C16.52 9.223 16.296 9 16.02 9H14.02C13.744 9 13.52 9.223 13.52 9.5V11.5C13.52 11.777 13.744 12 14.02 12H16.02C16.296 12 16.52 11.777 16.52 11.5V9.5ZM15.52 11H14.52V10H15.52V11Z" fill="#414862"/>
</svg>
